<?xml version="1.0" standalone="no"?><!DOCTYPE svg PUBLIC "-//W3C//DTD SVG 1.1//EN" "http://www.w3.org/Graphics/SVG/1.1/DTD/svg11.dtd"><svg t="1565671615587" class="icon" viewBox="0 0 1024 1024" version="1.1" xmlns="http://www.w3.org/2000/svg" p-id="9563" xmlns:xlink="http://www.w3.org/1999/xlink" width="128" height="128"><defs><style type="text/css"></style></defs><path d="M512 186.1632c-153.6 0-279.210667 125.678933-279.210667 279.278933S358.4 744.789333 512 744.789333s279.210667-125.610667 279.210667-279.210666S665.6 186.094933 512 186.094933z m0 465.442133a186.709333 186.709333 0 0 1-186.1632-186.1632c0-102.4 83.7632-186.1632 186.1632-186.1632 102.4 0 186.1632 83.7632 186.1632 186.1632 0 102.4-83.7632 186.1632-186.1632 186.1632zM0 465.442133h139.605333v93.115734H0V465.442133z m118.237867-282.624l65.809066-65.7408L282.624 215.722667l-65.672533 65.809066-98.781867-98.7136zM465.442133 0h93.115734v93.115733H465.442133V0z m276.957867 216.951467l98.645333-98.7136 65.877334 65.809066-98.781867 98.7136-65.7408-65.809066z m141.994667 248.490666H1024v93.115734h-139.605333V465.442133z m-512 325.8368h279.210666v93.115734h-279.210666V791.210667z m46.4896 139.605334h186.231466V1024H418.884267v-93.115733z" fill="#dbdbdb" p-id="9564"></path></svg>