<?xml version="1.0" standalone="no"?><!DOCTYPE svg PUBLIC "-//W3C//DTD SVG 1.1//EN" "http://www.w3.org/Graphics/SVG/1.1/DTD/svg11.dtd"><svg t="1568976918470" class="icon" viewBox="0 0 1708 1024" version="1.1" xmlns="http://www.w3.org/2000/svg" p-id="2073" width="213.5" height="128" data-spm-anchor-id="a313x.7781069.0.i11" xmlns:xlink="http://www.w3.org/1999/xlink"><defs><style type="text/css"></style></defs><path d="M879.278933 776.533333c-145.066667 8.533333-247.466667 128-247.466666 128-17.066667 25.6-17.066667 59.733333 0 85.333334 8.533333 8.533333 25.6 17.066667 34.133333 17.066666 17.066667 0 34.133333-8.533333 42.666667-17.066666 0 0 76.8-85.333333 170.666666-93.866667 102.4 0 179.2 85.333333 179.2 85.333333 17.066667 25.6 51.2 25.6 76.8 8.533334 25.6-17.066667 25.6-59.733333 8.533334-85.333334 0 0-102.4-136.533333-264.533334-128z" fill="#1296db" p-id="2074" data-spm-anchor-id="a313x.7781069.0.i12" class="selected"></path><path d="M904.878933 384c-366.933333 0-571.733333 273.066667-580.266666 281.6-17.066667 25.6-17.066667 68.266667 8.533333 85.333333 25.6 25.6 59.733333 17.066667 85.333333-8.533333C418.478933 750.933333 597.678933 512 904.878933 512 1203.5456 512 1365.678933 742.4 1365.678933 750.933333c8.533333 17.066667 25.6 25.6 51.2 25.6 8.533333 0 25.6 0 34.133334-8.533333 25.6-17.066667 34.133333-59.733333 8.533333-85.333333-8.533333-17.066667-196.266667-298.666667-554.666667-298.666667z" fill="#1296db" p-id="2075" data-spm-anchor-id="a313x.7781069.0.i14" class="selected"></path><path d="M1698.478933 375.466667c-8.533333-17.066667-281.6-366.933333-827.733333-375.466667H853.678933C316.078933 0 25.9456 358.4 8.878933 375.466667c-17.066667 25.6-8.533333 59.733333 17.066667 76.8 25.6 17.066667 59.733333 17.066667 85.333333-8.533334 0 0 264.533333-332.8 750.933334-332.8h17.066666c486.4 8.533333 725.333333 315.733333 733.866667 324.266667 8.533333 17.066667 25.6 25.6 51.2 25.6 8.533333 0 25.6 0 34.133333-8.533333 8.533333-17.066667 17.066667-51.2 0-76.8z" fill="#e6e6e6" p-id="2076" data-spm-anchor-id="a313x.7781069.0.i15" class=""></path></svg>